<svg xmlns="http://www.w3.org/2000/svg" version="1.1" xmlns:xlink="http://www.w3.org/1999/xlink" xmlns:svgjs="http://svgjs.dev/svgjs" width="1440" height="560" preserveAspectRatio="none" viewBox="0 0 1440 560"><g mask="url(&quot;#SvgjsMask1049&quot;)" fill="none"><rect width="1440" height="560" x="0" y="0" fill="rgba(13, 24, 36, 1)"></rect><path d="M0,355.462C78.863,363.377,157.178,385.881,232.86,362.338C322.259,334.528,425.518,297.239,462.983,211.437C500.457,125.614,433.381,32.257,417.267,-59.994C401.759,-148.772,434.295,-257.448,370.04,-320.641C305.374,-384.238,197.328,-355.124,107.165,-364.97C33.827,-372.979,-37.542,-389.161,-109.527,-373.013C-184.98,-356.087,-262.723,-329.961,-312.543,-270.82C-362.113,-211.975,-378.214,-131.285,-377.971,-54.344C-377.748,16.254,-341.002,78.121,-311.236,142.137C-281.684,205.692,-262.453,278.8,-204.64,318.426C-146.279,358.427,-70.4,348.396,0,355.462" fill="#0a131d"></path><path d="M1440 987.619C1526.219 975.47 1618.142 998.01 1693.831 954.9680000000001 1771.215 910.962 1808.5729999999999 825.126 1857.046 750.4590000000001 1914.108 662.561 2017.659 582.819 2002.7649999999999 479.087 1987.8719999999998 375.35699999999997 1870.3319999999999 322.674 1786.5810000000001 259.685 1718.083 208.168 1638.23 184.73200000000003 1561.258 147.03300000000002 1465.463 100.11500000000001 1384.833-0.5839999999999463 1278.795 10.985000000000014 1172.166 22.618000000000052 1079.463 109.649 1030.267 204.964 984.146 294.321 1038.518 400.704 1026.137 500.496 1014.1089999999999 597.449 939.312 683.983 958.9639999999999 779.682 980.135 882.778 1039.012 991.866 1135.6190000000001 1033.627 1231.756 1075.184 1336.291 1002.233 1440 987.619" fill="#101d2b"></path></g><defs><mask id="SvgjsMask1049"><rect width="1440" height="560" fill="#ffffff"></rect></mask></defs></svg>